<?xml version="1.0" encoding="UTF-8" standalone="no"?>
<svg width="100%" height="100%" viewBox="0 0 16 16" version="1.1" xmlns="http://www.w3.org/2000/svg" xmlns:xlink="http://www.w3.org/1999/xlink" xml:space="preserve" xmlns:serif="http://www.serif.com/" style="fill-rule:evenodd;clip-rule:evenodd;">
<g fill="url(#gradient)" stroke="black" stroke-width="0.2">
<rect x="5.5" y="0.2" rx="0.7" ry="0.7" width="1.4" height="15.6"/>
<rect x="9" y="0.2" rx="0.7" ry="0.7" width="1.4" height="15.6"/>
<rect x="0.2" y="5.5" rx="0.7" ry="0.7" width="15.6" height="1.4"/>
<rect x="0.2" y="9" rx="0.7" ry="0.7" width="15.6" height="1.4"/>
<rect x="2" y="2" width="12" height="12" rx="1.3" ry="1.3" />
</g>
<path fill="#FFF" d="M3.21,9.768l-0,-0.62c0.389,0.163 0.722,0.244 0.998,0.244c0.194,0 0.347,-0.043 0.458,-0.129c0.112,-0.086 0.167,-0.204 0.167,-0.352c0,-0.117 -0.034,-0.216 -0.104,-0.296c-0.07,-0.081 -0.203,-0.176 -0.398,-0.287l-0.242,-0.134c-0.324,-0.183 -0.553,-0.357 -0.686,-0.524c-0.134,-0.167 -0.2,-0.362 -0.2,-0.585c-0,-0.298 0.109,-0.537 0.328,-0.718c0.219,-0.18 0.508,-0.271 0.868,-0.271c0.288,0 0.613,0.042 0.974,0.125l0,0.579c-0.369,-0.139 -0.662,-0.208 -0.876,-0.208c-0.166,-0 -0.299,0.037 -0.4,0.111c-0.1,0.074 -0.15,0.171 -0.15,0.292c0,0.099 0.035,0.186 0.105,0.261c0.07,0.075 0.202,0.167 0.396,0.276l0.259,0.144c0.348,0.195 0.588,0.375 0.72,0.54c0.132,0.164 0.198,0.364 0.198,0.6c-0,0.335 -0.125,0.598 -0.374,0.789c-0.249,0.19 -0.592,0.285 -1.03,0.285c-0.29,0 -0.627,-0.04 -1.011,-0.122Zm9.438,-0.053c-0.452,0.117 -0.843,0.175 -1.171,0.175c-0.624,0 -1.103,-0.164 -1.437,-0.492c-0.335,-0.328 -0.502,-0.798 -0.502,-1.41c0,-0.607 0.167,-1.074 0.502,-1.401c0.334,-0.327 0.811,-0.491 1.429,-0.491c0.396,0 0.788,0.047 1.177,0.14l-0,0.588c-0.451,-0.155 -0.821,-0.232 -1.111,-0.232c-0.382,-0 -0.678,0.122 -0.886,0.366c-0.208,0.244 -0.313,0.59 -0.313,1.038c0,0.433 0.112,0.773 0.335,1.019c0.223,0.247 0.53,0.37 0.923,0.37c0.086,-0 0.187,-0.012 0.302,-0.037l0,-1.189l0.752,0l0,1.556Zm-5.434,0.085l-1.336,-3.613l0.804,-0l1.035,2.795l1.001,-2.795l0.542,-0l-1.292,3.613l-0.754,0Z"/>
<defs>
<radialGradient id="gradient" cx="7" cy="1.74" r="56" gradientUnits="userSpaceOnUse">
<stop stop-color="#5299d1" offset="0.003435"/>
<stop stop-color="#1d508f" offset="0.3"/>
<stop stop-color="#04142e" offset="1"/>
</radialGradient>
</defs>
</svg>