<?xml version="1.0" standalone="no"?>
<!DOCTYPE svg PUBLIC "-//W3C//DTD SVG 20010904//EN" "http://www.w3.org/TR/2001/REC-SVG-20010904/DTD/svg10.dtd">
<svg version="1.0" xmlns="http://www.w3.org/2000/svg"
     viewBox="0 0 16 16" width="100%" height="100%"
     shape-rendering="geometricPrecision" text-rendering="geometricPrecision" image-rendering="optimizeQuality"
     fill="#000" fill-rule="evenodd" clip-rule="evenodd"
     stroke="none" stroke-width="0"
     preserveAspectRatio="xMidYMid meet"
>
<path d="m6.1992 0.099609c-0.442 0-0.79883 0.35878-0.79883 0.80078v1h-2.0996c-0.773 0-1.4004 0.62739-1.4004 1.4004v2.0996h-1c-0.442 0-0.80078 0.35683-0.80078 0.79883s0.35878 0.80078 0.80078 0.80078h1v1.9004h-1c-0.442 0-0.80078 0.35683-0.80078 0.79883 0 0.442 0.35878 0.80078 0.80078 0.80078h1v2.1992c0 0.773 0.62739 1.4004 1.4004 1.4004h2.0996v1c0 0.442 0.35683 0.80078 0.79883 0.80078s0.80078-0.35878 0.80078-0.80078v-1h1.9004v1c0 0.442 0.35683 0.80078 0.79883 0.80078 0.442 0 0.80078-0.35878 0.80078-0.80078v-1h2.1992c0.773 0 1.4004-0.62739 1.4004-1.4004v-2.1992h1c0.442 0 0.80078-0.35878 0.80078-0.80078 0-0.442-0.35878-0.79883-0.80078-0.79883h-1v-1.9004h1c0.442 0 0.80078-0.35878 0.80078-0.80078 0-0.442-0.35878-0.79883-0.80078-0.79883h-1v-2.0996c0-0.773-0.62739-1.4004-1.4004-1.4004h-2.1992v-1c0-0.442-0.35878-0.80078-0.80078-0.80078-0.442 0-0.79883 0.35878-0.79883 0.80078v1h-1.9004v-1c0-0.442-0.35878-0.80078-0.80078-0.80078zm-2.6644 6.0645h1.543c0.23112 0 0.42611 0.02181 0.58398 0.0625 0.15951 0.039063 0.2998 0.097982 0.42188 0.17773 0.14648 0.096029 0.25749 0.2194 0.33398 0.36914 0.078125 0.14974 0.11719 0.3291 0.11719 0.53906 1e-7 0.16276-0.027018 0.32227-0.083984 0.47852-0.056967 0.15462-0.1403 0.28483-0.24609 0.39062-0.14486 0.14323-0.30534 0.25098-0.48438 0.32422-0.17741 0.073242-0.39876 0.10938-0.66406 0.10938h-0.58398v1.1855h-0.9375zm3.7553 0h0.9375v3.6367h-0.9375v-2.9922zm1.8644 0h1.1211l1.3262 2.084v-2.084h0.85938v3.6367h-0.9043l-1.543-2.4961v2.4961h-0.85938zm-4.6823 0.67969v1.0879h0.26953c0.15951 0 0.29004-0.00977 0.39258-0.029297 0.10417-0.019532 0.18978-0.058593 0.25977-0.11719 0.060221-0.052083 0.10482-0.11393 0.13086-0.18555 0.02767-0.073242 0.041016-0.16146 0.041016-0.26562 0-0.10254-0.028645-0.19043-0.083984-0.26367-0.055339-0.07487-0.11816-0.12695-0.19141-0.15625-0.097656-0.039063-0.19434-0.05924-0.28711-0.0625-0.092774-0.0048798-0.21452-0.0078123-0.36914-0.0078123z"/>
</svg>
