<?xml version="1.0" encoding="UTF-8"?>
<svg version="1.1" xmlns="http://www.w3.org/2000/svg"
viewBox="0 0 26 26" width="26" height="26"
fill-rule="evenodd" clip-rule="evenodd"
fill="#5299d1">
<rect fill="#fff" width="100%" height="100%"/>
<g fill="url(#gradient)" stroke="#000" stroke-width="0.2">
<rect x="10.5" y="5.2" width="1.4" height="15.6" rx="0.7" ry="0.7"/>
<rect x="14" y="5.2" width="1.4" height="15.6" rx="0.7" ry="0.7"/>
<rect x="5.2" y="10.5" width="15.6" height="1.4" rx="0.7" ry="0.7"/>
<rect x="5.2" y="14" width="15.6" height="1.4" rx="0.7" ry="0.7"/>
<rect x="7" y="7" width="12" height="12" rx="1.3" ry="1.3"/>
</g>
<path fill="#FFF" d="m18.292 14.2h-0.75894l-0.71704-0.96035-0.14502 0.17564v0.78472h-0.61875v-2.3993h0.61875v1.086l0.85723-1.086h0.71704l-0.93779 1.1102zm-2.6651-0.7541q0 0.35449-0.30132 0.57686-0.29971 0.22075-0.81533 0.22075-0.2981 0-0.52046-0.05156-0.22075-0.05317-0.41411-0.13374v-0.57524h0.06768q0.19175 0.15308 0.42861 0.23525 0.23848 0.08218 0.45762 0.08218 0.0564 0 0.14824-0.0097 0.09185-0.0097 0.14985-0.03223 0.0709-0.029 0.11602-0.07251 0.04673-0.04351 0.04673-0.12891 0-0.07895-0.06768-0.13535-0.06606-0.05801-0.19497-0.08862-0.13535-0.03223-0.28682-0.05962-0.14985-0.029-0.28198-0.07251-0.30293-0.09829-0.43667-0.26587-0.13213-0.16919-0.13213-0.41894 0-0.33516 0.29971-0.54624 0.30132-0.2127 0.77344-0.2127 0.23687 0 0.46729 0.04673 0.23203 0.04512 0.40122 0.1144v0.55269h-0.06606q-0.14502-0.11602-0.3561-0.19336-0.20947-0.07895-0.42861-0.07895-0.07734 0-0.15469 0.01128-0.07573 0.0097-0.14663 0.03867-0.06284 0.02417-0.10796 0.07412-0.04512 0.04834-0.04512 0.11118 0 0.09507 0.07251 0.14663 0.07251 0.04995 0.27393 0.09185 0.13213 0.02739 0.25298 0.05317 0.12246 0.02578 0.26265 0.0709 0.27554 0.09023 0.40606 0.24653 0.13213 0.15469 0.13213 0.40283zm-2.2688 0.7541h-0.6397l-0.16597-0.48501h-0.88945l-0.16597 0.48501h-0.62358l0.88623-2.3993h0.71221zm-0.95552-0.9249-0.29487-0.86045-0.29487 0.86045zm-1.8724 0.9249h-0.61553v-1.6065l-0.44473 1.0425h-0.427l-0.44473-1.0425v1.6065h-0.5833v-2.3993h0.71865l0.53979 1.2037 0.53818-1.2037h0.71865z"/>
<defs>
<radialGradient id="gradient" cx="13" cy="9.75" r="60.13" gradientUnits="userSpaceOnUse">
<stop stop-color="#5299d1" offset="0.0034351"/>
<stop stop-color="#1d508f" offset="0.3"/>
<stop stop-color="#04142e" offset="1"/>
</radialGradient>
</defs>
</svg>
