<?xml version="1.0" encoding="UTF-8"?>
<svg version="1.1" xmlns="http://www.w3.org/2000/svg"
viewBox="0 0 26 26" width="26" height="26"
fill-rule="evenodd" clip-rule="evenodd"
fill="#5299d1">
<rect fill="url(#gradient)" width="100%" height="100%"/>
<path fill="#fff" d="m11.199 5.1992c-0.3878 0-0.69922 0.31337-0.69922 0.70117v1.0996h-2.1992c-0.7202 0-1.3008 0.58058-1.3008 1.3008v2.1992h-1.0996c-0.3878 0-0.70117 0.31142-0.70117 0.69922s0.31337 0.70117 0.70117 0.70117h1.0996v2.0996h-1.0996c-0.3878 0-0.70117 0.31142-0.70117 0.69922s0.31337 0.70117 0.70117 0.70117h1.0996v2.2988c0 0.7202 0.58058 1.3008 1.3008 1.3008h2.1992v1.0996c0 0.3878 0.31142 0.70117 0.69922 0.70117s0.70117-0.31337 0.70117-0.70117v-1.0996h2.0996v1.0996c0 0.3878 0.31142 0.70117 0.69922 0.70117s0.70117-0.31337 0.70117-0.70117v-1.0996h2.2988c0.7202 0 1.3008-0.58058 1.3008-1.3008v-2.2988h1.0996c0.3878 0 0.70117-0.31337 0.70117-0.70117s-0.31337-0.69922-0.70117-0.69922h-1.0996v-2.0996h1.0996c0.3878 0 0.70117-0.31337 0.70117-0.70117s-0.31337-0.69922-0.70117-0.69922h-1.0996v-2.1992c0-0.7202-0.58058-1.3008-1.3008-1.3008h-2.2988v-1.0996c0-0.3878-0.31337-0.70117-0.70117-0.70117s-0.69922 0.31337-0.69922 0.70117v1.0996h-2.0996v-1.0996c0-0.3878-0.31337-0.70117-0.70117-0.70117zm3.4629 6.5586c0.15791 1e-6 0.31514 0.013769 0.46875 0.044922 0.15469 0.03008 0.2876 0.069045 0.40039 0.11524v0.55273h-0.066406c-0.09668-0.077343-0.21475-0.1418-0.35547-0.19336-0.13965-0.052634-0.28359-0.078125-0.42969-0.078125-0.051561 0-0.10273 0.002245-0.1543 0.009765-0.050487 0.006467-0.099217 0.01975-0.14648 0.039063-0.041893 0.016113-0.077342 0.040919-0.10742 0.074219-0.03008 0.032226-0.044922 0.069433-0.044922 0.11133 1e-6 0.06338 0.023926 0.11211 0.072266 0.14648 0.04834 0.0333 0.13916 0.063864 0.27344 0.091797 0.088086 0.01826 0.17334 0.035548 0.25391 0.052734 0.081641 0.017187 0.16826 0.042186 0.26172 0.072266 0.18369 0.060153 0.31924 0.14189 0.40625 0.24609 0.088086 0.10312 0.13281 0.23691 0.13281 0.40234 0 0.23633-0.10186 0.42793-0.30273 0.57617-0.1998 0.14717-0.4707 0.2207-0.81445 0.2207-0.19873-1e-6 -0.37129-0.016408-0.51953-0.050782-0.14717-0.035446-0.28516-0.079099-0.41406-0.13281v-0.57617h0.066406c0.12783 0.10205 0.27178 0.18154 0.42969 0.23633 0.15898 0.054787 0.31094 0.082031 0.45703 0.082031 0.0376 0 0.087209-0.003299 0.14844-0.009765 0.061234-0.006467 0.11172-0.018184 0.15039-0.033204 0.047267-0.019333 0.085157-0.043258 0.11523-0.072265 0.031154-0.029007 0.046875-0.071975 0.046875-0.12891 0-0.052634-0.023239-0.097165-0.068359-0.13477-0.04404-0.038673-0.10937-0.069437-0.19531-0.089844-0.090234-0.021486-0.18418-0.040334-0.28516-0.058593-0.099902-0.019334-0.19512-0.043259-0.2832-0.072266-0.20195-0.065527-0.34639-0.15391-0.43555-0.26562-0.088086-0.11279-0.13281-0.25342-0.13281-0.41992 0-0.22344 0.099023-0.40615 0.29883-0.54688 0.20088-0.1418 0.45869-0.21094 0.77344-0.21094zm-6.6484 0.042969h0.71875l0.54102 1.2031 0.53711-1.2031h0.71875v2.3984h-0.61523v-1.6055l-0.44531 1.041h-0.42578l-0.44531-1.041v1.6055h-0.58398v-2.3984zm3.7461 0h0.71094l0.88672 2.3984h-0.63867l-0.16602-0.48438h-0.89062l-0.16602 0.48438h-0.62305l0.88672-2.3984zm4.293 0h0.61719v1.0859l0.85742-1.0859h0.7168l-0.9375 1.1094 0.98438 1.2891h-0.75781l-0.7168-0.95898-0.14648 0.17383v0.78516h-0.61719v-2.3984zm-3.9453 0.61328-0.29492 0.86133h0.58984l-0.29492-0.86133z"/>
<path fill="none" stroke="#000" stroke-width="0.2" d="m11.199 5.1992c-0.3878 0-0.69922 0.31337-0.69922 0.70117v1.0996h-2.1992c-0.7202 0-1.3008 0.58058-1.3008 1.3008v2.1992h-1.0996c-0.3878 0-0.70117 0.31142-0.70117 0.69922s0.31337 0.70117 0.70117 0.70117h1.0996v2.0996h-1.0996c-0.3878 0-0.70117 0.31142-0.70117 0.69922s0.31337 0.70117 0.70117 0.70117h1.0996v2.2988c0 0.7202 0.58058 1.3008 1.3008 1.3008h2.1992v1.0996c0 0.3878 0.31142 0.70117 0.69922 0.70117s0.70117-0.31337 0.70117-0.70117v-1.0996h2.0996v1.0996c0 0.3878 0.31142 0.70117 0.69922 0.70117s0.70117-0.31337 0.70117-0.70117v-1.0996h2.2988c0.7202 0 1.3008-0.58058 1.3008-1.3008v-2.2988h1.0996c0.3878 0 0.70117-0.31337 0.70117-0.70117s-0.31337-0.69922-0.70117-0.69922h-1.0996v-2.0996h1.0996c0.3878 0 0.70117-0.31337 0.70117-0.70117s-0.31337-0.69922-0.70117-0.69922h-1.0996v-2.1992c0-0.7202-0.58058-1.3008-1.3008-1.3008h-2.2988v-1.0996c0-0.3878-0.31337-0.70117-0.70117-0.70117s-0.69922 0.31337-0.69922 0.70117v1.0996h-2.0996v-1.0996c0-0.3878-0.31337-0.70117-0.70117-0.70117z"/>
<defs>
<radialGradient id="gradient" cx="13" cy="9.75" r="60.13" gradientUnits="userSpaceOnUse">
<stop stop-color="#5299d1" offset="0.0034351"/>
<stop stop-color="#1d508f" offset="0.3"/>
<stop stop-color="#04142e" offset="1"/>
</radialGradient>
</defs>
</svg>
