<?xml version="1.0" encoding="UTF-8"?>
<svg version="1.0" xmlns="http://www.w3.org/2000/svg" viewBox="0 0 16 16" clip-rule="evenodd" fill-rule="evenodd" image-rendering="optimizeQuality" shape-rendering="geometricPrecision" stroke-width="0" text-rendering="geometricPrecision">
<path d="m6.1992 0.099609c-0.442 0-0.79883 0.35878-0.79883 0.80078v1h-2.0996c-0.773 0-1.4004 0.62738-1.4004 1.4004v2.0996h-1c-0.442 0-0.80078 0.35683-0.80078 0.79883 0 0.442 0.35878 0.80078 0.80078 0.80078h1v1.9004h-1c-0.442 0-0.80078 0.35683-0.80078 0.79883 0 0.442 0.35878 0.80078 0.80078 0.80078h1v2.1992c0 0.773 0.62738 1.4004 1.4004 1.4004h2.0996v1c0 0.442 0.35683 0.80078 0.79883 0.80078 0.442 0 0.80078-0.35878 0.80078-0.80078v-1h1.9004v1c0 0.442 0.35683 0.80078 0.79883 0.80078 0.442 0 0.80078-0.35878 0.80078-0.80078v-1h2.1992c0.773 0 1.4004-0.62738 1.4004-1.4004v-2.1992h1c0.442 0 0.80078-0.35878 0.80078-0.80078 0-0.442-0.35878-0.79883-0.80078-0.79883h-1v-1.9004h1c0.442 0 0.80078-0.35878 0.80078-0.80078 0-0.442-0.35878-0.79883-0.80078-0.79883h-1v-2.0996c0-0.773-0.62738-1.4004-1.4004-1.4004h-2.1992v-1c0-0.442-0.35878-0.80078-0.80078-0.80078-0.442 0-0.79883 0.35878-0.79883 0.80078v1h-1.9004v-1c0-0.442-0.35878-0.80078-0.80078-0.80078zm0.67578 6.7637c0.34961 1e-7 0.62402 0.10254 0.82422 0.30664 0.2002 0.20312 0.30078 0.47949 0.30078 0.83008 0 0.34766-0.099609 0.625-0.29883 0.83008-0.19922 0.2041-0.47461 0.30664-0.82617 0.30664-0.35059 0-0.625-0.10254-0.82422-0.30664-0.19922-0.20508-0.29883-0.48242-0.29883-0.83008 0-0.35059 0.099609-0.62695 0.29883-0.83008 0.19922-0.2041 0.47363-0.30664 0.82422-0.30664zm5.0918 0c0.34961 1e-7 0.62402 0.10254 0.82422 0.30664 0.2002 0.20312 0.30078 0.47949 0.30078 0.83008 0 0.34766-0.09961 0.625-0.29883 0.83008-0.19922 0.2041-0.47461 0.30664-0.82617 0.30664-0.35059 0-0.625-0.10254-0.82422-0.30664-0.19922-0.20508-0.29883-0.48242-0.29883-0.83008 0-0.35059 0.09961-0.62695 0.29883-0.83008 0.19922-0.2041 0.47363-0.30664 0.82422-0.30664zm-8.9297 0.046875h0.6543l0.49023 1.0938 0.48828-1.0938h0.6543v2.1797h-0.56055v-1.459l-0.4043 0.94727h-0.38672l-0.40625-0.94727v1.459h-0.5293zm5.3906 0h0.67188l0.79492 1.248v-1.248h0.51758v2.1797h-0.54297l-0.92578-1.4961v1.4961h-0.51562zm-1.5508 0.36523c-0.071289 0-0.13965 0.013672-0.20312 0.039063-0.0625 0.025391-0.11914 0.066406-0.17188 0.125-0.048828 0.054687-0.089844 0.12988-0.12109 0.22656-0.030273 0.095703-0.044922 0.20703-0.044922 0.33398 0 0.12988 0.013672 0.24219 0.042969 0.33398 0.030273 0.09082 0.070312 0.16504 0.11914 0.22266 0.048828 0.057617 0.10645 0.099609 0.17188 0.12695 0.06543 0.027344 0.13477 0.041016 0.20703 0.041016 0.072266 0 0.13965-0.013672 0.20508-0.041016 0.06543-0.02832 0.12305-0.072265 0.17188-0.13086 0.054687-0.066406 0.096679-0.14453 0.12305-0.23438 0.026367-0.09082 0.039062-0.19629 0.039062-0.31836 0-0.13086-0.014648-0.24219-0.044922-0.33398-0.030274-0.091797-0.070312-0.16602-0.11914-0.22266-0.049805-0.058594-0.1084-0.10254-0.17383-0.12891-0.064453-0.026367-0.13086-0.039062-0.20117-0.039062zm5.0918 0c-0.07129 0-0.13965 0.013672-0.20312 0.039063-0.0625 0.025391-0.11914 0.066406-0.17188 0.125-0.04883 0.054687-0.08984 0.12988-0.12109 0.22656-0.03027 0.095703-0.04492 0.20703-0.04492 0.33398 0 0.12988 0.01562 0.24219 0.04492 0.33398 0.03027 0.09082 0.06836 0.16504 0.11719 0.22266 0.04883 0.057617 0.10644 0.099609 0.17188 0.12695 0.06543 0.027344 0.13476 0.041016 0.20703 0.041016 0.07226 0 0.1416-0.013672 0.20703-0.041016 0.06543-0.02832 0.12109-0.072265 0.16992-0.13086 0.05469-0.066406 0.09473-0.14453 0.12109-0.23438 0.02637-0.09082 0.04101-0.19629 0.04101-0.31836 0-0.13086-0.0166-0.24219-0.04687-0.33398-0.030273-0.091797-0.068359-0.16602-0.11719-0.22266-0.049807-0.058594-0.1084-0.10254-0.17383-0.12891-0.064453-0.026367-0.13086-0.039062-0.20117-0.039062z"/>
</svg>
